<svg width="157" height="22" viewBox="0 0 157 22" fill="none" xmlns="http://www.w3.org/2000/svg">
<path d="M44.4785 6.9375H47.9941V8.67188H44.4785V17.875C44.4785 18.1667 44.5514 18.4167 44.6973 18.625C44.8431 18.8333 45.0462 18.9375 45.3066 18.9375C45.4628 18.9374 45.6245 18.8905 45.791 18.7969C45.9679 18.6928 46.1349 18.5728 46.291 18.4375C46.4575 18.3022 46.6036 18.1666 46.7285 18.0312C46.8533 17.896 46.9421 17.7916 46.9941 17.7188L48.4941 18.8906C48.2546 19.2551 47.9888 19.5991 47.6973 19.9219C47.4161 20.2343 47.0877 20.5105 46.7129 20.75C46.338 20.9791 45.9054 21.1615 45.416 21.2969C44.9369 21.4323 44.3794 21.5 43.7441 21.5C43.1505 21.5 42.6243 21.4114 42.166 21.2344C41.7181 21.0677 41.3431 20.8333 41.041 20.5312C40.7493 20.2188 40.5254 19.849 40.3691 19.4219C40.2233 18.9948 40.1504 18.5208 40.1504 18V8.67188H37.8691V7.25C38.3794 7.24994 38.8588 7.12494 39.3066 6.875C39.7648 6.61461 40.1765 6.26549 40.541 5.82812C40.9159 5.38029 41.2338 4.86443 41.4941 4.28125C41.7649 3.68761 41.9629 3.05715 42.0879 2.39062H44.4785V6.9375ZM150.003 6.65625C150.701 6.65625 151.315 6.724 151.847 6.85938C152.388 6.98435 152.868 7.16674 153.284 7.40625C153.701 7.64578 154.065 7.93761 154.378 8.28125C154.69 8.62492 154.972 9.01574 155.222 9.45312L152.722 10.3438C152.586 9.88557 152.425 9.53119 152.237 9.28125C152.05 9.02097 151.852 8.82808 151.644 8.70312C151.446 8.57822 151.248 8.5052 151.05 8.48438C150.862 8.45315 150.69 8.4375 150.534 8.4375C150.274 8.43751 150.024 8.46876 149.784 8.53125C149.545 8.58333 149.331 8.66669 149.144 8.78125C148.956 8.89581 148.805 9.03651 148.69 9.20312C148.586 9.35931 148.534 9.547 148.534 9.76562C148.534 10.0363 148.602 10.2918 148.737 10.5312C148.883 10.7708 149.081 11.0001 149.331 11.2188C149.581 11.427 149.873 11.625 150.206 11.8125C150.55 11.9895 150.92 12.1615 151.315 12.3281C151.92 12.5781 152.508 12.8594 153.081 13.1719C153.654 13.4739 154.164 13.8178 154.612 14.2031C155.06 14.578 155.414 15.0053 155.675 15.4844C155.946 15.9531 156.081 16.4793 156.081 17.0625C156.081 17.677 155.977 18.2553 155.769 18.7969C155.571 19.3385 155.242 19.8125 154.784 20.2188C154.326 20.6146 153.732 20.9271 153.003 21.1562C152.274 21.3854 151.383 21.5 150.331 21.5C149.446 21.5 148.69 21.3958 148.065 21.1875C147.451 20.9896 146.925 20.7343 146.487 20.4219C146.06 20.099 145.706 19.7395 145.425 19.3438C145.154 18.9376 144.914 18.5364 144.706 18.1406L147.159 17.2031C147.42 17.9738 147.784 18.5781 148.253 19.0156C148.722 19.4531 149.31 19.6718 150.019 19.6719C150.612 19.6719 151.097 19.5312 151.472 19.25C151.847 18.9583 152.034 18.6094 152.034 18.2031C152.034 17.8699 151.972 17.5728 151.847 17.3125C151.722 17.0418 151.545 16.7968 151.315 16.5781C151.086 16.3595 150.815 16.1614 150.503 15.9844C150.201 15.8073 149.873 15.6406 149.519 15.4844C148.956 15.2344 148.399 14.9635 147.847 14.6719C147.295 14.3802 146.795 14.0468 146.347 13.6719C145.899 13.2969 145.534 12.8697 145.253 12.3906C144.982 11.9011 144.847 11.3384 144.847 10.7031C144.847 10.0991 144.972 9.5468 145.222 9.04688C145.472 8.54694 145.821 8.11976 146.269 7.76562C146.727 7.41148 147.274 7.14062 147.909 6.95312C148.545 6.75522 149.243 6.65627 150.003 6.65625ZM30.0283 6.60938C31.0491 6.60939 31.9294 6.70314 32.6689 6.89062C33.4085 7.06771 34.0127 7.32815 34.4814 7.67188C34.9606 8.00517 35.3148 8.41152 35.5439 8.89062C35.7731 9.36972 35.8877 9.90636 35.8877 10.5V21.1875H31.5439V20.0469C31.3045 20.2447 31.0699 20.4324 30.8408 20.6094C30.6117 20.776 30.3563 20.9219 30.0752 21.0469C29.8044 21.1718 29.4866 21.2708 29.1221 21.3438C28.768 21.4167 28.3512 21.4531 27.8721 21.4531C27.2159 21.4531 26.622 21.3594 26.0908 21.1719C25.57 20.9844 25.1273 20.7292 24.7627 20.4062C24.3981 20.0729 24.1169 19.6823 23.9189 19.2344C23.7211 18.7761 23.6221 18.2864 23.6221 17.7656C23.6221 17.2137 23.7263 16.7187 23.9346 16.2812C24.1429 15.8439 24.4242 15.4478 24.7783 15.0938C25.1428 14.7397 25.5649 14.4218 26.0439 14.1406C26.5335 13.8594 27.0545 13.6041 27.6064 13.375C28.1584 13.1355 28.7263 12.9218 29.3096 12.7344C29.9032 12.5365 30.4919 12.3437 31.0752 12.1562L31.5439 12.0469V10.625C31.5439 9.7189 31.3668 9.07809 31.0127 8.70312C30.669 8.31779 30.2105 8.12504 29.6377 8.125C29.2941 8.125 29.0022 8.17194 28.7627 8.26562C28.5336 8.34891 28.346 8.46887 28.2002 8.625C28.0648 8.78117 27.9658 8.96367 27.9033 9.17188C27.8513 9.36971 27.8252 9.58344 27.8252 9.8125C27.8252 10.0832 27.7939 10.3438 27.7314 10.5938C27.6794 10.8436 27.5803 11.0678 27.4346 11.2656C27.2888 11.4531 27.0855 11.6042 26.8252 11.7188C26.5752 11.8333 26.2522 11.8906 25.8564 11.8906C25.2419 11.8906 24.7471 11.7188 24.3721 11.375C23.9971 11.0208 23.8096 10.5833 23.8096 10.0625C23.8096 9.56261 23.9763 9.10409 24.3096 8.6875C24.6429 8.26053 25.0961 7.89577 25.6689 7.59375C26.2418 7.28132 26.9034 7.04164 27.6533 6.875C28.4032 6.69796 29.1951 6.60938 30.0283 6.60938ZM56.4277 6.64062C57.3026 6.64062 58.0945 6.72924 58.8027 6.90625C59.5109 7.08329 60.1153 7.33346 60.6152 7.65625C61.1151 7.96866 61.5007 8.34391 61.7715 8.78125C62.0423 9.20826 62.1777 9.67719 62.1777 10.1875C62.1777 10.4271 62.1048 10.6563 61.959 10.875C61.8236 11.0833 61.6413 11.2708 61.4121 11.4375C61.183 11.5937 60.9173 11.7188 60.6152 11.8125C60.3237 11.9062 60.0266 11.9531 59.7246 11.9531C59.381 11.9531 59.0787 11.9062 58.8184 11.8125C58.5685 11.7188 58.3547 11.5937 58.1777 11.4375C58.0008 11.2813 57.8652 11.104 57.7715 10.9062C57.6883 10.698 57.6465 10.4842 57.6465 10.2656C57.6465 10.047 57.6361 9.82803 57.6152 9.60938C57.6048 9.39074 57.5527 9.19263 57.459 9.01562C57.3756 8.8283 57.2349 8.67701 57.0371 8.5625C56.8496 8.44808 56.5837 8.39062 56.2402 8.39062C55.7716 8.39069 55.3495 8.50527 54.9746 8.73438C54.5997 8.96353 54.2767 9.2761 54.0059 9.67188C53.7455 10.0573 53.5423 10.5105 53.3965 11.0312C53.2611 11.552 53.1934 12.0991 53.1934 12.6719C53.1934 13.4738 53.282 14.2397 53.459 14.9688C53.6464 15.6873 53.9018 16.323 54.2246 16.875C54.5578 17.4269 54.9539 17.8698 55.4121 18.2031C55.8808 18.526 56.4018 18.6874 56.9746 18.6875C57.4537 18.6875 57.8861 18.5937 58.2715 18.4062C58.6569 18.2083 59.0059 17.9427 59.3184 17.6094C59.6309 17.276 59.9121 16.8906 60.1621 16.4531C60.4225 16.0052 60.6621 15.5312 60.8809 15.0312L62.9434 15.5781C62.4642 17.4531 61.6257 18.901 60.4277 19.9219C59.2402 20.9427 57.7558 21.4531 55.9746 21.4531C54.9956 21.4531 54.0735 21.2656 53.209 20.8906C52.3446 20.5156 51.5891 20.0051 50.9434 19.3594C50.3081 18.7136 49.8027 17.9634 49.4277 17.1094C49.0633 16.2449 48.8809 15.328 48.8809 14.3594C48.8809 13.3074 49.0788 12.3176 49.4746 11.3906C49.8704 10.4532 50.4069 9.63538 51.084 8.9375C51.7714 8.22922 52.5737 7.67187 53.4902 7.26562C54.4068 6.84901 55.3862 6.64068 56.4277 6.64062ZM84.75 7.89062C85.3125 7.52608 85.9219 7.22915 86.5781 7C87.2343 6.76044 87.8698 6.64062 88.4844 6.64062C89.3802 6.64063 90.2032 6.81253 90.9531 7.15625C91.7031 7.49997 92.349 7.96361 92.8906 8.54688C93.4426 9.13015 93.8698 9.80739 94.1719 10.5781C94.4843 11.3489 94.6406 12.1668 94.6406 13.0312C94.6406 14.177 94.4218 15.2605 93.9844 16.2812C93.5573 17.302 92.9739 18.198 92.2344 18.9688C91.4948 19.7291 90.6197 20.3333 89.6094 20.7812C88.6094 21.2292 87.5417 21.4531 86.4062 21.4531C85.2708 21.4531 84.1875 21.3021 83.1562 21C82.1354 20.6875 81.2187 20.2031 80.4062 19.5469V1.20312L84.75 0V7.89062ZM103.716 6.64062C104.851 6.64065 105.903 6.82815 106.872 7.20312C107.841 7.5677 108.674 8.07295 109.372 8.71875C110.08 9.36454 110.632 10.1251 111.028 11C111.435 11.8645 111.638 12.797 111.638 13.7969C111.638 14.8488 111.434 15.8386 111.028 16.7656C110.633 17.6926 110.08 18.5053 109.372 19.2031C108.674 19.901 107.841 20.4531 106.872 20.8594C105.914 21.2552 104.867 21.4531 103.731 21.4531C102.596 21.4531 101.544 21.2656 100.575 20.8906C99.6169 20.5156 98.7887 20.0052 98.0908 19.3594C97.3929 18.7031 96.846 17.9375 96.4502 17.0625C96.0544 16.1771 95.8564 15.2239 95.8564 14.2031C95.8565 13.1095 96.0492 12.0989 96.4346 11.1719C96.8304 10.2449 97.3774 9.44784 98.0752 8.78125C98.7731 8.10428 99.6013 7.57808 100.56 7.20312C101.528 6.8282 102.581 6.64062 103.716 6.64062ZM120.697 6.64062C121.833 6.64067 122.885 6.82817 123.854 7.20312C124.822 7.5677 125.656 8.07298 126.354 8.71875C127.062 9.36455 127.614 10.1251 128.01 11C128.416 11.8645 128.619 12.797 128.619 13.7969C128.619 14.8488 128.416 15.8387 128.01 16.7656C127.614 17.6926 127.062 18.5053 126.354 19.2031C125.656 19.9009 124.822 20.4531 123.854 20.8594C122.895 21.2552 121.848 21.4531 120.713 21.4531C119.578 21.4531 118.525 21.2656 117.557 20.8906C116.598 20.5156 115.77 20.0052 115.072 19.3594C114.374 18.7031 113.827 17.9375 113.432 17.0625C113.036 16.1771 112.838 15.2239 112.838 14.2031C112.838 13.1095 113.031 12.0989 113.416 11.1719C113.812 10.245 114.359 9.44782 115.057 8.78125C115.754 8.10433 116.583 7.57806 117.541 7.20312C118.51 6.82824 119.562 6.64062 120.697 6.64062ZM17.4375 6.64062C18.0416 6.64062 18.6146 6.76045 19.1562 7C19.7083 7.22914 20.1875 7.55215 20.5938 7.96875C21.0104 8.37494 21.3386 8.85427 21.5781 9.40625C21.8177 9.94784 21.9375 10.5314 21.9375 11.1562V21.1875H17.5781V11.5C17.5781 11.1876 17.5364 10.8905 17.4531 10.6094C17.3802 10.3178 17.276 10.0676 17.1406 9.85938C17.0052 9.65113 16.8437 9.48434 16.6562 9.35938C16.4688 9.23443 16.2656 9.17188 16.0469 9.17188C15.7969 9.17188 15.5364 9.21356 15.2656 9.29688C14.9948 9.3802 14.7291 9.49482 14.4688 9.64062C14.2084 9.77602 13.9583 9.93755 13.7188 10.125C13.4792 10.3124 13.276 10.5105 13.1094 10.7188V21.1875H8.8125V11.5C8.81248 11.1876 8.77081 10.8905 8.6875 10.6094C8.60417 10.3178 8.48954 10.0676 8.34375 9.85938C8.20836 9.65113 8.04682 9.48434 7.85938 9.35938C7.67192 9.23443 7.47912 9.17188 7.28125 9.17188C7.05211 9.17188 6.80205 9.21356 6.53125 9.29688C6.27087 9.3802 6.01038 9.49482 5.75 9.64062C5.48963 9.77602 5.23433 9.93754 4.98438 10.125C4.73443 10.3125 4.51038 10.5105 4.3125 10.7188V21.1875H0V6.9375H4.3125V8.15625C4.99996 7.69796 5.70317 7.33332 6.42188 7.0625C7.15101 6.78127 7.8542 6.64062 8.53125 6.64062C8.90623 6.64062 9.28127 6.6823 9.65625 6.76562C10.0416 6.84895 10.4063 6.96877 10.75 7.125C11.1041 7.28123 11.4271 7.46879 11.7188 7.6875C12.0104 7.9062 12.2604 8.15632 12.4688 8.4375C12.7916 8.17713 13.1511 7.93747 13.5469 7.71875C13.9427 7.48961 14.3542 7.29686 14.7812 7.14062C15.2187 6.98439 15.6615 6.86458 16.1094 6.78125C16.5573 6.68751 17 6.64062 17.4375 6.64062ZM69.1748 8.04688C69.4977 7.80731 69.8467 7.59895 70.2217 7.42188C70.6071 7.24481 70.9978 7.09895 71.3936 6.98438C71.7893 6.85939 72.1853 6.77084 72.5811 6.71875C72.9872 6.65626 73.3832 6.62501 73.7686 6.625C74.3414 6.625 74.8832 6.73966 75.3936 6.96875C75.9039 7.19787 76.3467 7.51053 76.7217 7.90625C77.0966 8.30201 77.3936 8.76575 77.6123 9.29688C77.831 9.81763 77.9404 10.3803 77.9404 10.9844V21.1875H73.5967V11.4219C73.5966 10.6928 73.4769 10.1354 73.2373 9.75C72.9977 9.36477 72.6851 9.17188 72.2998 9.17188C72.1228 9.1719 71.9091 9.21357 71.6592 9.29688C71.4092 9.36979 71.1383 9.47398 70.8467 9.60938C70.5654 9.74479 70.279 9.90626 69.9873 10.0938C69.6957 10.2812 69.4248 10.4896 69.1748 10.7188V21.1875H64.7998V1.20312L69.1748 0V8.04688ZM134.818 11.7969L140.459 6.67188H143.6L137.303 12.375L144.881 21.1875H139.756L134.818 15.4531V21.1875H130.475V1.20312L134.818 0V11.7969ZM103.106 8.35938C102.763 8.35938 102.434 8.48452 102.122 8.73438C101.81 8.98432 101.533 9.32306 101.294 9.75C101.054 10.1666 100.862 10.6564 100.716 11.2188C100.57 11.7812 100.497 12.3699 100.497 12.9844C100.497 13.901 100.58 14.7657 100.747 15.5781C100.914 16.3906 101.159 17.1042 101.481 17.7188C101.804 18.3333 102.195 18.8229 102.653 19.1875C103.122 19.5417 103.648 19.7188 104.231 19.7188C104.627 19.7187 104.992 19.5937 105.325 19.3438C105.658 19.0834 105.945 18.7395 106.185 18.3125C106.424 17.8751 106.612 17.3749 106.747 16.8125C106.882 16.2397 106.95 15.6405 106.95 15.0156C106.95 14.1095 106.882 13.2551 106.747 12.4531C106.612 11.6407 106.393 10.9322 106.091 10.3281C105.789 9.72403 105.393 9.24476 104.903 8.89062C104.414 8.53649 103.815 8.35941 103.106 8.35938ZM120.088 8.35938C119.744 8.35938 119.416 8.48458 119.104 8.73438C118.791 8.9843 118.515 9.3231 118.275 9.75C118.036 10.1666 117.843 10.6564 117.697 11.2188C117.551 11.7812 117.479 12.3699 117.479 12.9844C117.479 13.901 117.562 14.7657 117.729 15.5781C117.895 16.3906 118.14 17.1042 118.463 17.7188C118.786 18.3333 119.176 18.8229 119.635 19.1875C120.103 19.5416 120.63 19.7188 121.213 19.7188C121.609 19.7187 121.973 19.5937 122.307 19.3438C122.64 19.0834 122.927 18.7394 123.166 18.3125C123.405 17.8751 123.593 17.3748 123.729 16.8125C123.864 16.2397 123.932 15.6405 123.932 15.0156C123.932 14.1095 123.864 13.2551 123.729 12.4531C123.593 11.6407 123.374 10.9322 123.072 10.3281C122.77 9.72404 122.374 9.24477 121.885 8.89062C121.395 8.53653 120.796 8.35944 120.088 8.35938ZM87.1406 9.45312C86.7448 9.45312 86.3229 9.57296 85.875 9.8125C85.4376 10.0416 85.0625 10.3386 84.75 10.7031V18.5938C85.052 18.8541 85.3698 19.0886 85.7031 19.2969C86.0365 19.5052 86.4479 19.6094 86.9375 19.6094C87.4271 19.6094 87.8698 19.4635 88.2656 19.1719C88.6614 18.8802 89 18.4791 89.2812 17.9688C89.5624 17.448 89.7813 16.8384 89.9375 16.1406C90.0937 15.4428 90.1719 14.6874 90.1719 13.875C90.1719 13.2709 90.0937 12.703 89.9375 12.1719C89.7813 11.6303 89.5625 11.1614 89.2812 10.7656C89.0104 10.3595 88.6874 10.0416 88.3125 9.8125C87.948 9.57297 87.5572 9.45313 87.1406 9.45312ZM31.5439 13.8125C31.1274 13.9895 30.7053 14.198 30.2783 14.4375C29.8513 14.6666 29.4658 14.922 29.1221 15.2031C28.7784 15.4843 28.497 15.7814 28.2783 16.0938C28.07 16.4062 27.9659 16.7345 27.9658 17.0781C27.9658 17.3489 28.0023 17.6094 28.0752 17.8594C28.1481 18.0989 28.2419 18.3125 28.3564 18.5C28.4814 18.6771 28.6221 18.8229 28.7783 18.9375C28.9346 19.0417 29.1012 19.0938 29.2783 19.0938C29.622 19.0937 29.9763 18.9843 30.3408 18.7656C30.7053 18.5469 31.1066 18.276 31.5439 17.9531V13.8125Z" fill="#421F00"/>
</svg>
